<?xml version="1.0" encoding="UTF-8" standalone="no"?>
<svg
   xmlns:dc="http://purl.org/dc/elements/1.1/"
   xmlns:cc="http://creativecommons.org/ns#"
   xmlns:rdf="http://www.w3.org/1999/02/22-rdf-syntax-ns#"
   xmlns:svg="http://www.w3.org/2000/svg"
   xmlns="http://www.w3.org/2000/svg"
   xmlns:sodipodi="http://sodipodi.sourceforge.net/DTD/sodipodi-0.dtd"
   xmlns:inkscape="http://www.inkscape.org/namespaces/inkscape"
   id="svg8"
   version="1.1"
   viewBox="0 0 35.928616 36.192299"
   height="36.192299mm"
   width="35.928616mm"
   sodipodi:docname="iconoauden.svg"
   inkscape:version="0.92.4 (5da689c313, 2019-01-14)">
  <sodipodi:namedview
     pagecolor="#ffffff"
     bordercolor="#666666"
     borderopacity="1"
     objecttolerance="10"
     gridtolerance="10"
     guidetolerance="10"
     inkscape:pageopacity="0"
     inkscape:pageshadow="2"
     inkscape:window-width="1920"
     inkscape:window-height="1001"
     id="namedview16"
     showgrid="false"
     fit-margin-top="0"
     fit-margin-left="0"
     fit-margin-right="0"
     fit-margin-bottom="0"
     inkscape:zoom="1.2937926"
     inkscape:cx="100.47978"
     inkscape:cy="65.301865"
     inkscape:window-x="-9"
     inkscape:window-y="-9"
     inkscape:window-maximized="1"
     inkscape:current-layer="svg8" />
  <defs
     id="defs2" />
  <metadata
     id="metadata5">
    <rdf:RDF>
      <cc:Work
         rdf:about="">
        <dc:format>image/svg+xml</dc:format>
        <dc:type
           rdf:resource="http://purl.org/dc/dcmitype/StillImage" />
        <dc:title></dc:title>
      </cc:Work>
    </rdf:RDF>
  </metadata>
  <path
     d="M 0,0 H 35.928617 V 36.1923 H 0 Z"
     style="fill:#868789;fill-rule:evenodd;stroke-width:0.26458332"
     id="path4531"
     inkscape:connector-curvature="0" />
  <path
     d="m 22.101281,22.92096 c 3.009,-2.00197 4.626636,-5.146913 4.222141,-9.952593 -0.01603,-0.189362 -0.02791,-0.35986 -0.0075,-0.549698 0.07123,-0.660824 0.37518,-1.27643 1.001342,-1.876954 l 3.05378,-0.8905619 -2.353998,-1.272619 c -2.596779,-2.226839 -5.767731,-0.307393 -6.775344,3.5626149 -0.357981,1.24378 -1.136226,2.42996 -2.262346,3.569388 -2.480786,2.201545 -4.766733,4.318555 -5.685314,5.848826 -0.309641,0.445796 -0.925486,0.470508 -1.225629,-0.0093 -0.670084,-1.043252 -1.826472,-1.674415 -3.06705,-1.674415 -2.013241,0 -3.64572,1.632373 -3.64572,3.645614 0,2.013373 1.632479,3.645481 3.64572,3.645481 1.205548,0 2.324418,-0.595762 2.999978,-1.573714 0.612378,-0.855292 1.309794,-1.298628 2.623847,-1.384221 0.545914,-0.03514 1.06119,-0.04487 1.607079,-0.114564 l 1.238911,-0.15875 0.533083,-0.09342 c 0.133932,0.324485 0.296571,0.609415 0.483102,0.860875 l 0.03384,0.09012 0.799862,2.72915 c -1.073521,0.1515 -1.902487,0.593646 -2.594902,1.199515 0.811848,-0.27522 1.631659,-0.458999 2.462636,-0.508397 l 0.728742,0.53295 0.381344,-0.563933 2.444697,0.291598 0.640054,-0.12954 0.818488,0.489161 -0.779304,-1.11461 -0.790971,0.06887 -0.433573,-0.07967 c -0.386107,-0.183806 -0.682572,-0.52705 -0.918131,-0.9788 l -0.655002,-2.082322 c 0.330411,-0.32094 0.611214,-0.678524 0.879528,-1.065107 0.186743,-0.269637 0.392985,-0.330544 0.596609,-0.46101 z m -2.482692,0.514191 c -0.06898,0.32176 -0.20529,0.664766 -0.410077,1.029124 l 0.788458,2.814186 c 0.266303,-0.02683 0.519192,-0.01722 0.759248,0.02813 L 19.86661,24.442314 c 0.04974,-0.33065 0.166925,-0.676857 0.351658,-1.038727 z m -0.910034,-0.959167 c 6.7174,-2.543016 5.892615,-5.170197 6.486499,-7.823835 0.139382,-2.505128 1.13739,-4.271063 2.779738,-5.4812409 -1.579774,0.456036 -2.981589,2.3280959 -4.23664,5.3738999 -2.544895,5.842899 -5.938229,7.671752 -11.037385,8.114347 -0.599228,0.09417 -0.892122,-0.136393 -1.173268,-0.630793 -0.485219,-0.947552 -1.461029,-1.544267 -2.526136,-1.544267 -1.566598,0 -2.837207,1.270502 -2.837207,2.837206 0,1.566704 1.270609,2.837682 2.837207,2.837682 0.979249,0 1.889998,-0.505645 2.407999,-1.336515 0.370549,-0.503502 0.724483,-1.064499 1.508417,-1.22227 l 2.477717,-0.303821 c 1.202213,-0.147214 2.171144,-0.388249 3.313059,-0.820393 z"
     style="fill:#ffffff;fill-rule:evenodd;stroke-width:0.26458332"
     id="path4533"
     inkscape:connector-curvature="0" />
</svg>
