<?xml version="1.0" encoding="UTF-8" standalone="no"?>
<svg
   xmlns:dc="http://purl.org/dc/elements/1.1/"
   xmlns:cc="http://creativecommons.org/ns#"
   xmlns:rdf="http://www.w3.org/1999/02/22-rdf-syntax-ns#"
   xmlns:svg="http://www.w3.org/2000/svg"
   xmlns="http://www.w3.org/2000/svg"
   id="svg8"
   version="1.1"
   viewBox="0 0 85.072884 36.193016"
   height="36.193016mm"
   width="85.072884mm">
  <defs
     id="defs2" />
  <metadata
     id="metadata5">
    <rdf:RDF>
      <cc:Work
         rdf:about="">
        <dc:format>image/svg+xml</dc:format>
        <dc:type
           rdf:resource="http://purl.org/dc/dcmitype/StillImage" />
        <dc:title></dc:title>
      </cc:Work>
    </rdf:RDF>
  </metadata>
  <g
     transform="translate(-54.225467,-136.02849)"
     id="layer1">
    <g
       transform="matrix(0.26458333,0,0,0.26458333,11.202101,86.003537)"
       id="g4552">
      <g
         id="Layer1000">
        <path
           d="M 162.608,189.0707 H 484.1433 V 325.8632 H 162.608 Z"
           style="fill:#3b3b3b;fill-opacity:0;fill-rule:evenodd"
           id="path4518" />
      </g>
      <path
         d="m 432.9657,278.2378 v -23.1626 h 4.3469 l 15.0916,17.1581 v -17.1581 h 4.3859 v 23.1626 h -4.3859 l -15.0916,-17.1823 v 17.1823 z"
         style="fill:#ffffff;fill-rule:evenodd"
         id="path4521" />
      <path
         d="m 427.5684,255.0752 h -21.9115 v 23.1626 h 22.5684 v -3.2897 h -18.0582 v -7.0464 h 17.4013 v -3.2636 h -17.4013 v -6.2755 h 17.4013 z"
         style="fill:#ffffff;fill-rule:evenodd"
         id="path4523" />
      <path
         d="m 370.0489,267.9017 v -12.8265 h -4.5335 v 12.8265 c -0.0121,8.8754 -14.7345,8.8754 -14.7224,0 v -12.8265 h -4.5339 v 12.8265 c 0,14.4146 23.7898,14.4146 23.7898,0 z"
         style="fill:#ffffff;fill-rule:evenodd"
         id="path4525" />
      <path
         d="m 387.2846,255.0582 h -11.4049 l -4e-4,15.9662 c -1.4476,0.7876 -2.35,2.3043 -2.35,3.9524 0,2.4838 2.0148,4.4981 4.4976,4.4981 1.1263,0 2.2149,-0.4236 3.0446,-1.1869 l 6.2131,-0.0502 c 17.8249,0 17.8249,-23.1796 0,-23.1796 z m -5.5795,19.8895 c -0.5919,0 -0.9607,0.2822 -1.2744,0.8427 -0.4236,0.7785 -1.2398,1.2636 -2.1247,1.2636 -1.3345,0 -2.4191,-1.0837 -2.4191,-2.4204 0,-1.3341 1.0846,-2.4178 2.4191,-2.4178 0.022,0 0.0435,10e-4 0.0642,10e-4 1.1222,0.0623 2.0515,-0.3258 2.122,-1.6509 l -0.0709,-12.2005 h 6.8633 c 11.907,-0.0996 11.9385,16.4863 0,16.5819 z"
         style="fill:#ffffff;fill-rule:evenodd"
         id="path4527" />
      <path
         d="m 315.3317,278.2378 11.6356,-23.163 h 4.5672 l 12.3876,23.163 h -5.1765 l -3.4113,-6.8319 h -11.9142 l -3.2223,6.8319 z m 18.4926,-9.8784 -4.6102,-9.6019 -4.3769,9.6019 z"
         style="fill:#ffffff;fill-rule:evenodd"
         id="path4529" />
      <path
         d="M 162.608,189.0707 H 298.4012 V 325.8605 H 162.608 Z"
         style="fill:#868789;fill-rule:evenodd"
         id="path4531" />
      <path
         d="m 246.1404,275.7011 c 11.3726,-7.5665 17.4865,-19.4529 15.9577,-37.6161 -0.0606,-0.7157 -0.1055,-1.3601 -0.0283,-2.0776 0.2692,-2.4976 1.418,-4.8243 3.7846,-7.094 l 11.5418,-3.3659 -8.897,-4.8099 c -9.8146,-8.4164 -21.7993,-1.1618 -25.6076,13.465 -1.353,4.7009 -4.2944,9.1841 -8.5506,13.4906 -9.3762,8.3208 -18.016,16.3221 -21.4878,22.1058 -1.1703,1.6849 -3.4979,1.7783 -4.6323,-0.035 -2.5326,-3.943 -6.9032,-6.3285 -11.592,-6.3285 -7.6091,0 -13.7791,6.1696 -13.7791,13.7787 0,7.6096 6.17,13.7782 13.7791,13.7782 4.5564,0 8.7852,-2.2517 11.3385,-5.9479 2.3145,-3.2326 4.9504,-4.9082 9.9169,-5.2317 2.0633,-0.1328 4.0108,-0.1696 6.074,-0.433 l 4.6825,-0.6 2.0148,-0.3531 c 0.5062,1.2264 1.1209,2.3033 1.8259,3.2537 l 0.1279,0.3406 3.0231,10.3149 c -4.0574,0.5726 -7.1905,2.2437 -9.8075,4.5336 3.0684,-1.0402 6.1669,-1.7348 9.3076,-1.9215 l 2.7543,2.0143 1.4413,-2.1314 9.2398,1.1021 2.4191,-0.4896 3.0935,1.8488 -2.9454,-4.2127 -2.9895,0.2603 -1.6387,-0.3011 c -1.4593,-0.6947 -2.5798,-1.992 -3.4701,-3.6994 l -2.4756,-7.8702 c 1.2488,-1.213 2.3101,-2.5645 3.3242,-4.0256 0.7058,-1.0191 1.4853,-1.2493 2.2549,-1.7424 z m -9.3834,1.9434 c -0.2607,1.2161 -0.7759,2.5125 -1.5499,3.8896 l 2.98,10.6363 c 1.0065,-0.1014 1.9623,-0.0651 2.8696,0.1063 l -3.3623,-10.8256 c 0.188,-1.2497 0.6309,-2.5582 1.3291,-3.9259 z m -3.4395,-3.6252 c 25.3886,-9.6114 22.2713,-19.5409 24.5159,-29.5704 0.5268,-9.4682 4.2988,-16.1426 10.5061,-20.7165 -5.9708,1.7236 -11.269,8.7991 -16.0125,20.3108 -9.6185,22.0834 -22.4437,28.9956 -41.7161,30.6684 -2.2648,0.3559 -3.3718,-0.5155 -4.4344,-2.3841 -1.8339,-3.5813 -5.522,-5.8366 -9.5476,-5.8366 -5.921,0 -10.7233,4.8019 -10.7233,10.7233 0,5.9214 4.8023,10.7251 10.7233,10.7251 3.7011,0 7.1433,-1.9111 9.1011,-5.0514 1.4005,-1.903 2.7382,-4.0233 5.7011,-4.6196 l 9.3646,-1.1483 c 4.5438,-0.5564 8.2059,-1.4674 12.5218,-3.1007 z"
         style="fill:#ffffff;fill-rule:evenodd"
         id="path4533" />
    </g>
  </g>
</svg>
