<?xml version="1.0" encoding="UTF-8" standalone="no"?>
<!-- Created with Inkscape (http://www.inkscape.org/) -->

<svg
   xmlns:dc="http://purl.org/dc/elements/1.1/"
   xmlns:cc="http://creativecommons.org/ns#"
   xmlns:rdf="http://www.w3.org/1999/02/22-rdf-syntax-ns#"
   xmlns:svg="http://www.w3.org/2000/svg"
   xmlns="http://www.w3.org/2000/svg"
   xmlns:sodipodi="http://sodipodi.sourceforge.net/DTD/sodipodi-0.dtd"
   xmlns:inkscape="http://www.inkscape.org/namespaces/inkscape"
   width="731.81"
   height="229.91901"
   viewBox="0 0 193.62472 60.832738"
   version="1.1"
   id="svg8"
   inkscape:version="0.92.4 (5da689c313, 2019-01-14)"
   sodipodi:docname="logoaudenblanco.svg">
  <defs
     id="defs2" />
  <sodipodi:namedview
     id="base"
     pagecolor="#ffffff"
     bordercolor="#666666"
     borderopacity="1.0"
     inkscape:pageopacity="0.0"
     inkscape:pageshadow="2"
     inkscape:zoom="1.2628803"
     inkscape:cx="385.54131"
     inkscape:cy="83.223274"
     inkscape:document-units="mm"
     inkscape:current-layer="layer1"
     showgrid="false"
     units="px"
     inkscape:pagecheckerboard="true"
     borderlayer="true"
     inkscape:window-width="1920"
     inkscape:window-height="1001"
     inkscape:window-x="-9"
     inkscape:window-y="-9"
     inkscape:window-maximized="1" />
  <metadata
     id="metadata5">
    <rdf:RDF>
      <cc:Work
         rdf:about="">
        <dc:format>image/svg+xml</dc:format>
        <dc:type
           rdf:resource="http://purl.org/dc/dcmitype/StillImage" />
        <dc:title></dc:title>
      </cc:Work>
    </rdf:RDF>
  </metadata>
  <g
     inkscape:label="Capa 1"
     inkscape:groupmode="layer"
     id="layer1"
     transform="translate(0,-236.16725)">
    <rect
       style="fill:#000000;fill-opacity:1;stroke:#000000;stroke-width:0.31957275"
       id="rect824"
       width="250.47247"
       height="68.604515"
       x="-28.423872"
       y="232.28136"
       ry="34.302258" />
    <path
       style="fill:#ffffff;stroke-width:0.04633905"
       d="m 52.903239,296.43662 -1.13362,-0.68002 -0.92975,0.18451 -0.92976,0.18451 -3.38146,-0.40684 c -1.859813,-0.22376 -3.443016,-0.40202 -3.518235,-0.39612 -0.121097,0.01 -0.194344,0.0956 -0.639625,0.75215 -0.276575,0.40778 -0.520975,0.7596 -0.543109,0.78181 -0.02283,0.0229 -0.481121,-0.28282 -1.059276,-0.70667 -1.176067,-0.86218 -0.986711,-0.80282 -2.152869,-0.67476 -1.720829,0.18899 -3.612715,0.60323 -5.474526,1.1987 -0.202206,0.0647 -0.37619,0.10904 -0.386638,0.0986 -0.01044,-0.0104 0.207127,-0.19855 0.483495,-0.41801 1.86507,-1.48106 3.852168,-2.39405 6.167434,-2.83367 0.389343,-0.0739 0.66033,-0.14703 0.66033,-0.17813 0,-0.029 -0.521915,-1.83273 -1.159814,-4.00828 l -1.159814,-3.95555 -0.370205,-0.5587 c -0.203613,-0.30729 -0.529105,-0.8774 -0.723311,-1.26691 -0.194205,-0.38952 -0.380932,-0.70821 -0.414939,-0.70821 -0.03401,0 -0.359558,0.0523 -0.723444,0.11626 -0.716156,0.12585 -1.648449,0.25412 -3.673653,0.50544 -1.565238,0.19425 -2.063915,0.23743 -3.776634,0.32701 -0.726362,0.038 -1.466629,0.0812 -1.645035,0.0959 -3.19469,0.2645 -5.178254,1.23101 -6.89071,3.35756 -0.09236,0.11469 -0.327689,0.42748 -0.52296,0.69509 -1.099903,1.50735 -2.316259,2.54162 -3.939397,3.34969 -3.075008,1.53085 -6.797556,1.42073 -9.780221,-0.28934 -2.839693,-1.62808 -4.69113,-4.34413 -5.19624101,-7.62285 -0.09819,-0.63736 -0.10988101,-2.17029 -0.02141,-2.80541 0.49249301,-3.5349 2.64433101,-6.53745 5.77638601,-8.06001 1.443562,-0.70175 2.697393,-1.0065 4.332702,-1.05309 3.672431,-0.10464 6.964077,1.6236 9.071992,4.76313 0.286868,0.42726 0.53737,0.65325 0.937239,0.84555 0.281957,0.13559 0.333777,0.14476 0.810933,0.14352 0.964913,-0.003 1.298039,-0.23627 2.154768,-1.5121 0.91444,-1.36178 1.700834,-2.35851 3.101255,-3.93075 2.483393,-2.78808 6.218952,-6.38258 11.750407,-11.30668 1.459706,-1.29943 2.36933,-2.2536 3.512517,-3.68455 1.194075,-1.49465 2.04912,-2.80976 2.801419,-4.30878 0.636617,-1.2685 0.963908,-2.12003 1.421035,-3.69714 0.916764,-3.16292 2.128314,-5.60315 3.846174,-7.74672 0.45871,-0.57237 1.44328,-1.59048 1.97302,-2.04023 2.99679,-2.54421 6.48954,-3.32925 9.77058,-2.19606 1.10478,0.38156 2.4591,1.14483 3.37925,1.90448 0.25442,0.21005 0.71999,0.49096 1.60916,0.97093 0.68814,0.37145 1.74119,0.94051 2.34012,1.26458 0.59893,0.32406 1.55668,0.84136 2.12832,1.14954 0.89471,0.48236 1.02369,0.56522 0.92678,0.5954 -0.0619,0.0193 -1.75992,0.51499 -3.77335,1.10157 -2.01343,0.58657 -3.9423,1.14878 -4.28636,1.24936 l -0.62558,0.18287 -0.34425,0.36337 c -1.51902,1.60338 -2.31556,3.23061 -2.50293,5.11313 -0.0397,0.39837 -0.0311,0.71333 0.0473,1.73771 0.12301,1.60799 0.16935,4.56638 0.0933,5.95457 -0.42252,7.70956 -2.88266,13.73445 -7.55691,18.50688 -1.6141,1.648 -3.63212,3.26796 -5.18614,4.16317 -0.5758,0.33169 -0.84955,0.55777 -1.12928,0.93263 -0.13604,0.18229 -0.465118,0.62317 -0.731285,0.97973 -0.523697,0.70154 -1.177641,1.47237 -1.591191,1.8756 -0.142868,0.13931 -0.259762,0.28368 -0.259762,0.32083 0,0.0372 0.41783,1.39786 0.928508,3.02381 0.648028,2.06326 0.976903,3.04188 1.088713,3.2397 0.591257,1.04604 1.324007,1.84439 2.141347,2.33303 0.24249,0.14497 0.39236,0.19208 0.92679,0.2913 l 0.63751,0.11836 0.92678,-0.0771 c 0.50973,-0.0424 1.02229,-0.0889 1.13902,-0.10325 l 0.21225,-0.0262 1.06474,1.52253 c 1.09071,1.55965 1.14474,1.63866 1.12008,1.63798 -0.008,0 -0.52445,-0.3064 -1.14794,-0.68042 z m -9.961804,-7.19894 c -0.689663,-2.22204 -1.253939,-4.10924 -1.253939,-4.19378 0,-0.3987 0.45544,-1.81827 0.807338,-2.51643 0.09445,-0.18738 0.161123,-0.35132 0.148146,-0.36428 -0.0287,-0.0287 -1.641099,0.0545 -1.672926,0.0863 -0.01243,0.0124 -0.08516,0.24011 -0.161658,0.50598 -0.183473,0.63768 -0.270474,0.85594 -0.686617,1.72252 l -0.350262,0.72939 1.127772,4.02036 1.127771,4.02036 0.838095,0.007 c 0.460946,0.004 0.942352,0.0254 1.069784,0.0479 0.127433,0.0225 0.238168,0.0261 0.246065,0.008 0.0079,-0.0182 -0.549897,-1.85116 -1.239569,-4.07319 z m -31.096403,0.6952 c 2.243616,-0.40399 4.078463,-1.59981 5.400726,-3.51976 1.290319,-1.87357 2.165587,-2.76904 3.195285,-3.26904 0.754581,-0.3664 0.923796,-0.39649 5.074125,-0.90239 5.142181,-0.62679 6.168461,-0.7895 8.2168,-1.30272 4.664737,-1.16878 10.914674,-3.90023 14.489331,-6.33237 1.37969,-0.93872 2.25704,-1.65107 3.28311,-2.66566 2.50689,-2.47888 3.7606,-4.95842 4.47759,-8.85564 0.0653,-0.35467 0.24274,-1.50156 0.39442,-2.54865 0.15168,-1.04708 0.33999,-2.23743 0.41846,-2.64521 0.17034,-0.88513 0.16609,-0.85401 0.2566,-1.87673 0.44168,-4.99086 2.11665,-9.00836 5.11577,-12.27044 0.67776,-0.73718 1.6117,-1.58798 2.39897,-2.1854 0.18332,-0.13911 0.32674,-0.25949 0.31872,-0.2675 -0.0328,-0.0328 -0.87276,0.29176 -1.34858,0.52116 -1.18474,0.57114 -2.2502,1.37013 -3.43604,2.57666 -0.72888,0.7416 -1.04822,1.10872 -1.69551,1.94917 -1.79565,2.33153 -3.56122,5.51623 -5.24884,9.46782 -0.69247,1.6214 -0.99014,2.27858 -1.59522,3.52177 -4.00538,8.2294 -8.922533,13.65815 -15.225413,16.80953 -3.1526,1.57627 -6.585272,2.63527 -10.701345,3.30143 -2.037646,0.32976 -4.938524,0.64959 -5.494148,0.60573 -0.630005,-0.0497 -1.079006,-0.24253 -1.523727,-0.65426 -0.340293,-0.31505 -0.582043,-0.64908 -1.021187,-1.41097 -1.540596,-2.67282 -4.161054,-4.21482 -7.163117,-4.21509 -3.632738,-3.5e-4 -6.806683,2.40533 -7.823348,5.92964 -0.21811,0.75608 -0.282475,1.25574 -0.283541,2.2011 -8.63e-4,0.91964 0.03452,1.22532 0.237059,2.03851 0.572881,2.29999 2.229819,4.3108 4.3944,5.33293 0.823487,0.38885 1.852071,0.6756 2.725354,0.75976 0.582514,0.0561 1.569558,0.0136 2.163296,-0.0934 z M 133.09126,276.03296 c -0.59789,-0.16092 -1.06427,-0.43554 -1.53168,-0.90187 -0.35568,-0.35486 -0.45218,-0.48559 -0.63391,-0.8588 -0.30634,-0.62912 -0.37847,-0.97876 -0.34657,-1.67976 0.0292,-0.64216 0.10911,-0.94861 0.38324,-1.47028 0.21192,-0.40329 0.78335,-1.02663 1.12666,-1.229 l 0.23582,-0.13902 8.7e-4,-6.05883 8.6e-4,-6.05882 4.43697,8.6e-4 c 2.47274,3.5e-4 4.74467,0.0213 5.13204,0.0473 1.68326,0.1128 3.02433,0.4543 4.35588,1.1092 1.05575,0.51926 1.72187,1.00319 2.51007,1.82359 1.42982,1.48823 2.22574,3.36976 2.31647,5.47607 0.093,2.15842 -0.65123,4.26543 -2.0905,5.91862 -1.16707,1.34053 -2.94145,2.36852 -4.90209,2.84003 -1.17342,0.28219 -1.42918,0.30136 -4.75679,0.35637 l -3.0767,0.0508 -0.28288,0.2136 c -0.33189,0.25061 -0.75452,0.4488 -1.20864,0.5668 -0.44275,0.11503 -1.22858,0.11185 -1.66923,-0.007 z m 1.74915,-1.8508 c 0.31783,-0.12147 0.70443,-0.45901 0.91909,-0.80246 0.2069,-0.33105 0.31408,-0.44502 0.51573,-0.54843 0.1618,-0.083 0.30086,-0.0882 2.36328,-0.0886 2.95428,-4.4e-4 3.6429,-0.0556 4.68333,-0.37409 2.25108,-0.68919 3.83912,-2.43309 4.29272,-4.71407 0.28277,-1.42192 0.092,-2.84444 -0.55432,-4.13291 -0.299,-0.59608 -0.633,-1.05817 -1.10701,-1.53155 -1.03013,-1.02878 -2.41498,-1.635 -4.12039,-1.80372 -0.26869,-0.0266 -1.71069,-0.0475 -3.27671,-0.0475 h -2.79683 l 0.01,4.83085 0.01,4.83084 -0.10002,0.18536 c -0.24958,0.46252 -0.57641,0.61818 -1.40325,0.66836 -0.51954,0.0315 -0.63136,0.0534 -0.88933,0.17442 -0.3729,0.17486 -0.6965,0.50076 -0.88718,0.89349 -0.13359,0.27514 -0.14692,0.34267 -0.14666,0.74287 0,0.34559 0.0224,0.49545 0.10286,0.69716 0.12254,0.30699 0.48622,0.72989 0.77143,0.89704 0.46751,0.27397 1.09354,0.32165 1.61363,0.12289 z m -16.78617,1.35897 c -1.36794,-0.12475 -2.54701,-0.43777 -3.65158,-0.96943 -2.36339,-1.13755 -3.80015,-2.92495 -4.35247,-5.41466 l -0.12451,-0.56128 -0.0152,-5.45642 -0.0152,-5.45643 h 1.71486 1.71486 l 0.014,5.31741 0.014,5.3174 0.12613,0.43126 c 0.25416,0.86895 0.60031,1.4621 1.21183,2.07646 1.0736,1.07861 2.67449,1.64616 4.45221,1.57842 1.35543,-0.0517 2.50399,-0.43467 3.45706,-1.15283 1.11874,-0.84299 1.73218,-2.0005 1.84927,-3.48937 0.024,-0.30584 0.0442,-2.69868 0.0448,-5.31741 l 8.6e-4,-4.76134 h 1.69138 1.69137 l 4.3e-4,0.12744 c 4.4e-4,0.0701 0,2.42807 -4.3e-4,5.23997 -8.6e-4,4.23652 -0.0128,5.19549 -0.0691,5.59659 -0.35463,2.52631 -1.76726,4.51357 -4.10674,5.77726 -0.86066,0.4649 -2.11939,0.86467 -3.23838,1.0285 -0.51019,0.0747 -1.97203,0.12836 -2.40963,0.0885 z m -28.280761,-6.95696 c 1.82677,-3.63819 3.80637,-7.57411 4.3991,-8.74649 l 1.07771,-2.1316 1.73673,-0.0121 1.73673,-0.0121 0.183037,0.33651 c 0.100674,0.18508 0.589904,1.09763 1.087184,2.02788 0.49727,0.93026 1.54505,2.8904 2.32838,4.35588 2.82022,5.27614 4.3071,8.05651 4.8075,8.98977 0.28014,0.52247 0.6125,1.14284 0.73859,1.37859 l 0.22923,0.42864 h -1.96171 -1.96172 l -1.29563,-2.59499 -1.29562,-2.59499 h -4.501201 -4.5012 l -1.22281,2.59452 -1.22281,2.59451 -1.84145,4.4e-4 -1.84143,4.3e-4 z m 10.671921,-0.86482 c 0,-0.0424 -3.426751,-7.17645 -3.467541,-7.21894 -0.0171,-0.0178 -0.27451,0.50351 -0.57206,1.15848 -0.29755,0.65495 -1.03261,2.27067 -1.63345,3.59048 -0.60085,1.31982 -1.09245,2.41979 -1.09245,2.44439 0,0.0284 1.23979,0.0447 3.38275,0.0447 1.860507,0 3.382751,-0.009 3.382751,-0.0191 z m 54.44838,-1.27836 v -8.75808 h 8.29469 8.29469 v 1.22783 1.22782 l -6.59173,0.0117 -6.59173,0.0117 v 2.36329 2.36329 l 6.59173,0.0117 6.59173,0.0117 v 1.22782 1.22783 h -6.57681 -6.57681 l -0.0295,0.24328 c -0.0163,0.1338 -0.023,1.33804 -0.0149,2.67608 l 0.0146,2.4328 6.84659,0.0117 6.84659,0.0117 v 1.22783 1.22783 h -8.54955 -8.54956 z m 20.66768,0 10e-4,-8.75808 h 1.66473 1.66473 l 0.8019,0.91167 c 0.44104,0.50142 1.35449,1.54045 2.02988,2.30895 2.37737,2.70513 4.16768,4.74109 5.40226,6.1435 0.68606,0.77933 1.67487,1.90327 2.19735,2.49764 l 0.94995,1.08067 0.0117,-6.47121 0.0117,-6.47122 h 1.66805 1.66804 v 8.75808 8.75808 h -1.66504 -1.66504 l -0.96702,-1.10055 c -1.20591,-1.37241 -8.82698,-10.05009 -9.7367,-11.08662 -0.36908,-0.42052 -0.68845,-0.77154 -0.70971,-0.78004 -0.0213,-0.008 -0.0387,2.90565 -0.0387,6.47589 v 6.49132 h -1.64549 -1.64549 l 0.001,-8.75808 z"
       id="path3724"
       inkscape:connector-curvature="0" />
  </g>
</svg>
